# xmcd
#
# Track frame offsets: 
#        150
#        12321
#        27008
#        110279
#        121486
#        133733
#        171088
#        187777
#        205638
#        215708
#        231878
#        247563
#        255191
#        293991
#
# Disc length: 4085 seconds
#
# Revision: 1
# Processed by: cddbd v1.5.2PL0 Copyright (c) Steve Scherf et al.
# Submitted via: ExactAudioCopy v1.0b3
#
DISCID=b40ff30e
DTITLE=Royal Swedish Navy Band - Sousa - Music for Wind Band 11
DYEAR=2012
DGENRE=Wind Band
TTITLE0=Mother Hubbard March
TTITLE1=Keeping Step with the Union March
TTITLE2=In Parlor and Street Fantasy
TTITLE3=Wolverine March
TTITLE4=Globe and Eagle March
TTITLE5=In Pulpit and Pew Fantasy
TTITLE6=On Parade March
TTITLE7=Tally Ho Overture
TTITLE8=We Are Coming March
TTITLE9=Liberty Loan March
TTITLE10=National Fencibles March
TTITLE11=Guide Right March
TTITLE12=You're the Flower of my Heart - Sweet Adeline Fantasy
TTITLE13=Bonnie Annie Laurie
EXTD=
EXTT0=
EXTT1=
EXTT2=
EXTT3=
EXTT4=
EXTT5=
EXTT6=
EXTT7=
EXTT8=
EXTT9=
EXTT10=
EXTT11=
EXTT12=
EXTT13=
PLAYORDER=
